Coordinates
version=1
nRows=19
nColumns=34
inDegrees=yes

Units are S.I. units (second, meters, Newtons, ...)
If the header above contains a line with 'inDegrees', this indicates whether rotational values are in degrees (yes) or radians (no).

endheader
time	pelvis_tilt	pelvis_list	pelvis_rotation	pelvis_tx	pelvis_ty	pelvis_tz	hip_flexion_r	hip_adduction_r	hip_rotation_r	knee_angle_r	ankle_angle_r	subtalar_angle_r	mtp_angle_r	hip_flexion_l	hip_adduction_l	hip_rotation_l	knee_angle_l	ankle_angle_l	subtalar_angle_l	mtp_angle_l	lumbar_extension	lumbar_bending	lumbar_rotation	arm_flex_r	arm_add_r	arm_rot_r	elbow_flex_r	pro_sup_r	arm_flex_l	arm_add_l	arm_rot_l	elbow_flex_l	pro_sup_l
      2.93333330	     -4.35591913	      2.20973251	     -3.38795943	      0.47225665	      0.87113614	     -0.07328368	      2.56537525	     -7.59012520	     -5.85092762	      3.15469658	      9.29476192	      2.68092175	      0.00000000	      7.17469715	      1.13694197	     -7.16763073	      9.21747911	     11.34255656	     -5.42923268	      0.00000000	      2.04803142	     -2.72552018	      6.00483165	     62.83679241	     13.66096748	     68.73181033	    121.54070955	    100.10737431	     45.76686244	      8.80869962	     50.10759826	    118.68537608	     78.24331013
      2.95000000	     -4.27439357	      2.14426449	     -3.29266150	      0.47429382	      0.87046524	     -0.07911363	      2.51813921	     -7.88378670	     -5.83072385	      3.44315869	      9.27020257	      2.66330201	      0.00000000	      7.03812149	      1.41252321	     -7.19500207	      9.30058786	     11.41960849	     -5.47053125	      0.00000000	      2.24966348	     -2.51960589	      5.92053567	     62.79743051	     13.69123795	     68.69040125	    121.59584610	    100.10032006	     45.78779359	      8.85987820	     50.16145367	    118.67068398	     78.23908319
      2.96666670	     -4.24318616	      2.30146737	     -3.11634051	      0.47536318	      0.86695308	     -0.08412695	      3.09717054	     -8.51667371	     -5.94637885	      4.75826754	      9.72104527	      2.03077178	      0.00000000	      6.90527112	      2.01233793	     -6.74356147	      9.25523628	     12.38780034	     -5.67772519	      0.00000000	      2.43133825	     -2.83242244	      5.55698020	     62.58942038	     13.97445267	     67.99613098	    121.78126432	     99.96998283	     46.04063737	      8.69525099	     50.54035094	    118.20392434	     78.14675337
      2.98333330	     -4.13616343	      2.26568525	     -2.94635222	      0.47504550	      0.86698901	     -0.08940994	      3.57990668	     -8.96750584	     -6.20933227	      6.03244255	      9.67047908	      1.47244482	      0.00000000	      6.66633345	      2.41661910	     -6.46498702	      9.20248384	     12.93103646	     -5.74153923	      0.00000000	      2.55370788	     -2.77755548	      5.65845591	     62.59703048	     13.81719085	     67.61931489	    121.81137602	     99.87040157	     46.27253246	      8.88981011	     50.75350154	    118.32152406	     78.07990927
      3.00000000	     -3.96616615	      2.15374532	     -2.82866758	      0.47450481	      0.86784835	     -0.09368939	      4.29136457	     -9.34968488	     -6.14205684	      7.76849420	      9.61709840	      0.49241829	      0.00000000	      6.36280676	      2.71877379	     -6.20331741	      9.11142293	     13.59493344	     -5.80503060	      0.00000000	      2.52880145	     -2.75619920	      5.47086160	     62.60926410	     13.80053464	     67.13750438	    121.87525340	     99.69864579	     46.79312465	      9.00014865	     50.89585295	    117.84521264	     77.93257431
      3.01666670	     -3.65834657	      2.07896446	     -2.64983756	      0.47700992	      0.87429032	     -0.09889161	      4.94759577	     -9.79636444	     -6.47027765	      9.78286214	      9.29479132	     -0.18003871	      0.00000000	      5.74544915	      3.07486407	     -5.89628391	      8.77508930	     13.99095643	     -5.80812686	      0.00000000	      2.37219968	     -2.71785746	      5.61306672	     62.18727677	     13.70673321	     67.15310697	    121.88231373	     99.64062996	     46.51822097	      8.95333149	     51.05918521	    117.98393352	     77.88187952
      3.03333330	     -3.44826981	      1.98130975	     -2.53810999	      0.47630337	      0.87654309	     -0.10351700	      6.09020561	    -10.15497984	     -6.00949280	     12.33488343	      9.00820058	     -1.59033695	      0.00000000	      5.27648463	      3.37698099	     -5.56607126	      8.46635419	     14.26091575	     -5.83731102	      0.00000000	      2.15582260	     -2.80295269	      5.44251022	     61.77988024	     13.77898106	     67.24559410	    121.93908279	     99.52101464	     46.40829103	      8.89960742	     51.35224080	    118.11287753	     77.76796238
      3.05000000	     -3.07416288	      1.76163735	     -2.38853610	      0.47338236	      0.87903216	     -0.10858318	      7.37874974	    -10.39980065	     -5.88452512	     15.30856257	      8.45607859	     -2.96191969	      0.00000000	      4.74049893	      3.56140004	     -5.21992476	      8.20489444	     14.51678505	     -5.88716254	      0.00000000	      1.63620677	     -2.67501685	      5.20203416	     61.81078670	     13.66632036	     67.33299968	    121.88776727	     99.44317299	     46.56521492	      8.85314578	     51.50892247	    117.86527032	     77.68732484
      3.06666670	     -2.76891279	      1.47461183	     -2.25473426	      0.47356963	      0.87638215	     -0.11305155	      9.01006824	    -10.47402542	     -5.12929626	     18.74724681	      7.60155560	     -5.36833913	      0.00000000	      4.34800273	      3.65801089	     -5.05787479	      8.09075535	     14.68648664	     -6.24381164	      0.00000000	      1.11458793	     -2.36306558	      5.00989137	     62.01101244	     13.44856303	     67.54514954	    122.20566177	     99.31980823	     46.80243745	      8.67850122	     51.80900464	    117.19818292	     77.59281504
      3.08333330	     -2.26498850	      1.16828348	     -1.97190074	      0.47397529	      0.88015223	     -0.11486242	     10.48585197	    -10.62793736	     -5.34331816	     22.28222871	      7.19296268	     -6.06071981	      0.00000000	      3.67455361	      3.68762705	     -4.70229116	      7.85162787	     14.91808296	     -6.17287832	      0.00000000	      0.42704741	     -2.16615358	      4.85396770	     62.00462330	     13.46516674	     67.44460290	    122.25607264	     99.29243578	     46.93992675	      8.54548313	     51.82519380	    117.12074705	     77.58014794
      3.10000000	     -2.17515555	      0.88116414	     -1.91570328	      0.47458657	      0.88089639	     -0.11797799	     12.67494094	    -10.39786867	     -4.27785074	     25.73859187	      6.37546606	     -8.35897432	      0.00000000	      3.53333812	      3.64300972	     -4.69548016	      7.79498768	     14.99195306	     -6.34160028	      0.00000000	      0.15322388	     -2.08033614	      4.60169927	     62.01920518	     13.55267204	     67.47575066	    122.42739924	     99.20243150	     46.99627766	      8.21074915	     52.19876667	    117.45922884	     77.57293617
      3.11666670	     -1.75036760	      0.49458402	     -1.62438423	      0.47532858	      0.88047778	     -0.12078823	     14.35907616	    -10.18583497	     -4.21418241	     28.70760012	      6.17774158	     -9.01762772	      0.00000000	      2.93366596	      3.53506215	     -4.31070805	      7.54521420	     15.33243205	     -6.27242620	      0.00000000	     -0.42259260	     -1.88903151	      4.34113734	     62.05219745	     13.67397853	     67.27499138	    122.46460285	     99.16683671	     47.13124824	      8.22362351	     52.14913435	    117.57837867	     77.57022998
      3.13333330	     -1.49989739	      0.13739086	     -1.42370055	      0.47255769	      0.88024156	     -0.12219520	     16.48237103	     -9.68911747	     -3.61686965	     31.14428081	      6.28221420	     -9.72607828	      0.00000000	      2.65846533	      3.37320518	     -4.21181979	      7.46820634	     15.61474421	     -6.34609683	      0.00000000	     -0.85199655	     -1.65529786	      4.01266897	     62.29087392	     13.82262576	     67.06179833	    122.38287043	     99.12562884	     47.40932946	      8.08309886	     52.15510718	    117.88910103	     77.58119900
      3.15000000	     -1.23593920	     -0.30961353	     -1.11148060	      0.47244821	      0.87986703	     -0.12572510	     18.29335561	     -9.07719101	     -3.52417408	     32.47703231	      6.49698740	    -10.02036581	      0.00000000	      2.34612430	      3.12486285	     -3.95774655	      7.33416718	     15.72477797	     -6.23498161	      0.00000000	     -1.30564671	     -1.26430744	      3.67569116	     62.54501832	     14.01056692	     66.93211957	    122.37450018	     99.10822839	     47.69534120	      8.07395780	     52.16519585	    117.80839596	     77.58392993
      3.16666670	     -0.88668225	     -0.66267532	     -0.84412195	      0.47313481	      0.88287894	     -0.12722773	     19.73831334	     -8.53983564	     -3.56376498	     32.72749934	      6.58618770	    -10.03990947	      0.00000000	      1.97301087	      2.89461983	     -3.94331659	      7.24497702	     15.60780004	     -6.17443983	      0.00000000	     -1.74711046	     -1.19690922	      3.30789887	     62.50586484	     13.89773381	     66.91974649	    122.30283077	     99.10592594	     47.78376756	      8.10545889	     52.18859723	    117.71483466	     77.58245465
      3.18333330	     -0.77969734	     -0.87820903	     -0.68029286	      0.47104655	      0.88301525	     -0.13146030	     21.36383252	     -8.09955885	     -3.38120770	     31.99838871	      6.81334812	    -10.02435876	      0.00000000	      2.07309416	      2.76864719	     -4.04497266	      7.25039671	     14.96575802	     -6.07015510	      0.00000000	     -2.04853081	     -1.09449040	      2.71963294	     62.86909619	     14.15406341	     66.93892744	    122.35698592	     99.10882050	     48.16656408	      7.82977616	     52.12541472	    117.28725912	     77.57362392
      3.20000000	     -0.64026379	     -0.97477668	     -0.53536788	      0.46960001	      0.88309126	     -0.13310312	     22.75670128	     -7.81194092	     -3.29131898	     30.40861184	      6.85151852	     -9.83362961	      0.00000000	      2.18770116	      2.74227576	     -3.88206657	      7.30617499	     14.20566081	     -5.89094481	      0.00000000	     -2.38493301	     -1.31281387	      2.46552294	     63.25377979	     14.13877592	     66.90126159	    122.23619062	     99.11788440	     48.49514478	      8.05352470	     52.02058038	    117.43381281	     77.57691905
      3.21666670	     -0.50242405	     -0.97138060	     -0.30299291	      0.46994777	      0.88259732	     -0.13521172	     23.86712071	     -7.69755923	     -3.35330705	     28.14924503	      6.88260713	     -9.25110847	      0.00000000	      2.35432304	      2.82903307	     -3.36233069	      7.39392624	     12.95404047	     -6.68444363	      0.00000000	     -2.75164511	     -1.51431582	      1.87296779	     63.44161554	     14.26945492	     67.17423880	    122.27959884	     99.23346067	     48.47529732	      7.65841132	     51.59969678	    117.58642976	     77.60493222
      3.23333330	     -0.26877325	     -0.94410545	     -0.17744219	      0.46841542	      0.88203375	     -0.13755493	     24.95020565	     -7.59468804	     -2.96973803	     25.83998497	      6.79543637	     -8.86919591	      0.00000000	      2.58258767	      2.89240047	     -3.33282018	      7.70350085	     12.31216107	     -6.57421011	      0.00000000	     -3.20705075	     -1.69363967	      1.49412386	     63.64073655	     14.16300619	     67.01787730	    122.32203268	     99.24747946	     48.79275715	      7.59577663	     51.46690913	    117.33017541	     77.60223669
